<svg version="1.1" id="Layer_1" xmlns="http://www.w3.org/2000/svg" xmlns:xlink="http://www.w3.org/1999/xlink" x="0px" y="0px"
	 width="100%" viewBox="0 0 1024 1024" enable-background="new 0 0 1024 1024" xml:space="preserve">
<path fill="#000000" opacity="1.000000" stroke="none" 
	d="
M688.030273,574.034058 
	C687.007996,578.911316 683.823425,579.670349 679.289673,579.461731 
	C670.768799,579.069641 662.217102,579.348755 653.657410,580.009155 
	C662.221741,580.736328 670.713379,582.012695 679.218262,582.529541 
	C707.507385,584.248718 735.852417,583.665955 764.178040,583.646667 
	C779.866272,583.635986 795.349243,585.915710 810.901550,587.436646 
	C815.281311,587.864990 819.853638,587.257202 824.186707,589.544067 
	C822.165588,592.147766 819.460205,591.249695 817.149353,591.256165 
	C779.649963,591.361694 742.126282,590.559937 704.657715,591.658447 
	C668.676819,592.713318 632.711243,593.416016 596.721436,593.493958 
	C587.009644,593.515015 587.284180,593.788513 586.555481,584.222046 
	C585.981628,576.689697 584.798035,569.164551 580.077759,561.590393 
	C568.254822,575.424866 560.295227,590.855347 550.629944,605.132690 
	C556.190552,586.588562 565.378723,570.136719 578.631897,555.926392 
	C576.507996,553.401855 574.564575,554.495605 572.665405,555.535278 
	C568.921936,557.584534 566.023804,560.566284 563.724854,564.098572 
	C552.794189,580.893188 545.804382,598.944702 546.290161,619.350220 
	C546.397034,623.838257 548.014893,628.076111 548.935181,633.167969 
	C445.035614,633.384827 341.647461,633.365967 238.213242,630.414673 
	C246.929550,628.567139 255.829315,629.282837 264.607300,628.540344 
	C273.872650,627.756714 283.113495,626.466431 292.294861,624.967590 
	C301.410950,623.479370 310.548920,623.778564 319.697662,623.757812 
	C328.766388,623.737244 337.835175,623.753296 347.231201,622.956726 
	C340.996552,613.743347 332.629852,606.763550 326.580231,596.788757 
	C330.217865,596.510437 333.260895,596.081421 336.304718,596.075928 
	C359.304047,596.034668 382.304260,596.187500 405.302612,596.036316 
	C414.108154,595.978455 421.871307,598.275757 427.786896,604.897339 
	C436.173584,614.285034 446.196899,617.979553 458.878998,616.887878 
	C470.266785,615.907654 481.805481,616.681396 493.224213,616.681396 
	C493.661682,614.848450 492.339233,614.616760 491.601410,614.281372 
	C480.817261,609.379944 470.704865,603.209534 460.219696,597.746399 
	C454.344055,594.685120 448.175812,593.256653 441.493011,593.281616 
	C405.660553,593.415527 369.768951,594.676086 334.009857,593.063049 
	C292.202362,591.177063 250.424850,591.804810 208.635483,591.266113 
	C207.248764,591.248230 205.592484,591.707886 204.066910,589.014832 
	C223.026947,586.836670 241.321518,583.505371 260.042297,583.643433 
	C278.669342,583.780884 297.298157,583.673584 316.096405,582.902771 
	C310.087830,578.959534 304.979095,573.497070 297.810303,572.589172 
	C289.112305,571.487610 285.206329,566.735535 284.963318,558.485474 
	C284.761719,551.641907 284.922058,544.787720 284.922058,536.995178 
	C288.102905,539.190674 287.444885,541.324097 287.444641,543.123108 
	C287.444153,546.781677 287.257751,550.389832 288.027863,554.055420 
	C289.711060,562.066956 290.813538,563.632568 298.906097,564.580933 
	C324.214600,567.546814 349.568726,569.449524 375.104767,568.055786 
	C390.888733,567.194336 406.669220,566.532898 422.399384,564.808838 
	C428.528625,564.136963 434.585236,563.049255 439.125641,559.037231 
	C450.447937,549.032593 464.274811,546.068054 478.443848,543.599243 
	C487.379822,542.042236 496.145874,539.403870 506.573242,539.226929 
	C499.491394,546.733093 493.516083,553.711426 483.611420,555.306030 
	C471.310852,557.286255 459.020844,559.332275 446.717438,561.294312 
	C444.129486,561.707031 441.641449,562.226562 438.467102,564.508728 
	C447.463165,564.951233 455.091187,563.209167 462.779266,562.552185 
	C469.895203,561.944153 476.948608,560.628845 484.059570,559.930603 
	C490.810364,559.267700 496.565033,556.579163 501.563049,552.175476 
	C509.039124,545.588318 516.574829,539.079834 525.447571,533.014771 
	C518.580383,530.814514 512.573608,532.698364 506.678589,533.521606 
	C491.537689,535.636230 476.552246,538.633423 461.684875,542.263672 
	C453.914856,544.160889 446.694092,547.063843 440.870178,552.521301 
	C434.448883,558.538452 426.843323,561.322327 418.342804,562.045593 
	C390.130463,564.446289 361.909058,566.588623 333.557922,564.582703 
	C322.116150,563.773254 310.657990,563.295349 299.302856,561.432312 
	C294.388916,560.626099 291.371277,558.249023 290.472839,553.367615 
	C289.582245,548.528809 287.883575,543.737671 289.217102,538.519714 
	C297.615875,537.805847 295.598663,546.030457 298.878235,549.751038 
	C301.171967,541.137207 297.696472,535.293274 287.620941,530.776367 
	C288.463898,526.508789 292.026123,524.398865 294.991150,521.988586 
	C299.607605,518.235901 305.316010,516.573059 310.877594,514.909546 
	C327.505066,509.936249 344.573151,507.269623 361.830658,505.643219 
	C381.798340,503.761353 401.334045,500.461731 418.962952,489.820923 
	C427.251343,484.818054 436.665833,482.166992 445.792694,479.014282 
	C446.990784,478.600403 448.251526,477.956146 450.260864,478.920013 
	C443.534546,483.607086 435.975616,485.901581 429.453796,490.192596 
	C453.689636,478.456146 479.411469,472.412506 506.004456,469.743713 
	C526.418396,467.695038 546.879211,468.955780 567.456177,469.460236 
	C552.214844,472.729401 536.819275,475.111176 521.999512,479.889465 
	C507.035889,484.714142 493.414093,492.479706 479.550354,500.183807 
	C487.184540,498.873749 494.813324,497.531097 502.454559,496.263702 
	C508.846497,495.203491 515.180054,493.725433 521.709656,493.622803 
	C524.980957,493.571381 527.765442,491.962219 530.619080,490.592834 
	C547.699463,482.396271 565.516846,476.573761 584.393860,474.420349 
	C588.518616,473.949799 592.225952,473.434875 596.022400,471.135773 
	C601.332947,467.919708 607.480408,470.480743 613.157715,471.104736 
	C630.333618,472.992584 645.472046,480.188782 658.938293,490.711853 
	C665.458069,495.806610 672.199219,498.176361 680.539246,497.818207 
	C699.231995,497.015503 716.808228,501.627380 733.395935,510.238708 
	C735.783508,511.478210 736.985718,512.593750 736.331665,515.558716 
	C733.110596,530.160889 730.118164,544.813293 726.988892,559.435913 
	C725.525818,566.272522 721.897583,571.021790 714.602966,575.921326 
	C713.062378,574.791016 713.683899,573.164124 713.968872,571.868591 
	C715.455017,565.112244 713.615845,558.655457 712.339722,552.159119 
	C712.066833,550.769775 711.668762,549.005554 709.967896,548.601013 
	C707.936951,548.117798 706.971008,549.857971 706.122070,551.198853 
	C701.222534,558.938416 696.438538,566.751038 691.579590,574.516541 
	C690.801636,575.759705 690.309875,577.258362 688.658569,578.101379 
	C687.243225,577.275757 687.879395,575.899902 688.167725,574.093628 
	C694.387695,562.583252 698.407410,550.368042 709.752441,542.799988 
	C705.177368,541.186768 702.892212,544.203979 700.888123,546.816284 
	C694.660278,554.934448 690.406860,564.059265 688.030273,574.034058 
M511.944183,500.468964 
	C500.312744,502.424316 488.696594,504.476532 477.046570,506.314056 
	C455.210297,509.758301 432.997284,510.197449 411.256653,514.373718 
	C397.574158,517.002014 383.697418,519.042236 371.038940,525.421326 
	C368.157349,526.873535 366.595276,526.279968 366.471985,522.893066 
	C366.431427,521.780396 366.980988,520.540833 365.236084,519.179199 
	C347.229645,525.059937 329.428955,532.564331 311.593994,540.123474 
	C321.226135,539.608276 330.778839,538.955566 340.341888,538.433411 
	C366.090271,537.027649 391.807953,535.020996 417.563782,533.801270 
	C438.018707,532.832581 458.284882,530.612122 478.483246,527.338928 
	C492.920349,524.999268 507.573364,522.343567 522.087952,524.941589 
	C530.590332,526.463440 536.851624,524.039795 543.890259,520.162231 
	C558.732788,511.985596 574.283020,505.618256 591.948364,508.540009 
	C592.768372,508.675629 593.975342,509.077515 594.731323,507.410767 
	C580.041748,503.516998 565.315369,500.356628 550.244019,499.404388 
	C537.777893,498.616821 525.278748,498.966858 511.944183,500.468964 
M627.959839,488.129211 
	C621.275940,486.233429 614.529053,484.592590 607.562988,484.278137 
	C600.322083,483.951233 595.771606,488.322144 594.974121,496.634430 
	C604.415222,496.634430 613.819702,496.876862 623.202026,496.526398 
	C627.526855,496.364899 630.469727,491.299927 627.959839,488.129211 
M553.848145,553.346436 
	C550.874756,558.622437 548.013184,563.939209 547.660706,570.241455 
	C554.109497,558.442200 559.367371,545.700745 574.213806,541.067993 
	C571.134277,538.508484 568.777466,539.701477 566.588196,540.725525 
	C561.109680,543.288208 557.350525,547.699402 553.848145,553.346436 
z"/>
<path fill="#000000" opacity="1.000000" stroke="none" 
	d="
M324.470520,470.614532 
	C341.160980,414.128845 372.056213,368.894989 424.251099,340.243011 
	C444.428497,329.166809 466.329041,323.277222 489.238007,320.368713 
	C526.632690,315.621185 562.225586,321.168457 595.995911,337.607941 
	C649.396973,363.603729 682.624695,406.849548 701.291138,462.285278 
	C704.529175,471.901642 706.857361,481.756561 708.915100,491.680664 
	C709.151062,492.818665 709.524231,493.949921 708.695251,495.097260 
	C706.701843,495.676880 705.234253,494.327057 703.732483,493.467041 
	C687.676086,484.272156 670.995483,476.292236 654.422913,468.106598 
	C650.433228,466.135986 647.215637,463.524536 644.617737,459.881927 
	C636.879700,449.032471 629.031738,438.265503 622.702820,426.493469 
	C622.163879,425.491028 621.708496,424.365906 620.539307,423.952515 
	C618.407166,424.314514 618.034424,426.141022 617.412415,427.598297 
	C614.071960,435.424591 608.299377,441.455017 602.837646,447.739868 
	C600.362244,450.588379 598.021484,450.433044 595.017639,448.507935 
	C581.548401,439.875916 570.414978,428.704407 559.894531,416.814026 
	C543.974060,398.820496 530.339478,379.473755 523.248718,356.146667 
	C521.469849,350.294678 521.348938,350.037079 522.224487,344.395233 
	C520.700623,342.884369 519.766541,345.970154 518.019958,344.707764 
	C517.218750,340.211609 517.949341,335.404297 517.688171,330.640503 
	C517.595093,328.943146 518.258423,326.455017 515.482910,326.460785 
	C512.673340,326.466583 513.375122,328.980164 513.342468,330.654480 
	C513.248535,335.460388 513.309326,340.269318 513.309326,344.755127 
	C511.289581,346.298370 510.428772,343.687683 508.594177,344.417419 
	C510.736115,347.892242 509.720795,351.216919 508.581421,354.823456 
	C499.586670,383.294830 481.064026,405.501923 461.479675,427.028107 
	C453.947266,435.307434 445.395782,442.477356 436.791626,449.600800 
	C433.487671,452.336121 430.802734,452.534393 427.870392,449.205811 
	C421.942200,442.476471 415.131958,436.457458 411.256897,428.106598 
	C410.704407,426.915924 410.095673,425.656647 408.519043,425.466980 
	C406.735779,425.751495 406.250427,427.303406 405.563538,428.587372 
	C399.258301,440.373566 391.063934,450.926239 383.773254,462.068542 
	C379.707092,468.282898 374.111237,472.426971 367.373596,475.409576 
	C352.150360,482.148529 336.920868,488.885101 322.094513,496.482635 
	C321.549194,496.762054 320.885590,496.810669 319.685120,497.118774 
	C319.820190,487.868927 322.301025,479.474762 324.470520,470.614532 
z"/>
<path fill="#000000" opacity="1.000000" stroke="none" 
	d="
M506.000061,642.665405 
	C552.934204,642.665039 599.368347,642.665039 646.829834,642.665039 
	C617.437256,673.002502 582.738220,691.550171 541.152222,696.090820 
	C479.395111,702.833862 425.044647,686.436890 379.064301,642.665710 
	C421.686401,642.665710 463.593231,642.665710 506.000061,642.665405 
z"/>
<path fill="#000000" opacity="1.000000" stroke="none" 
	d="
M350.950226,394.914551 
	C331.328003,423.070862 319.116608,454.072235 311.352844,487.010773 
	C313.137878,434.572845 341.401154,365.311432 407.066925,327.294189 
	C482.065094,283.873962 557.342590,286.394501 629.978821,333.898590 
	C688.635193,372.259888 715.687500,439.096222 716.288879,484.426086 
	C714.701111,478.795319 713.151611,473.153473 711.519409,467.535614 
	C700.216370,428.630859 681.953796,393.658325 652.405396,365.407471 
	C620.014954,334.439362 581.667786,315.218323 536.921448,310.309906 
	C480.170288,304.084564 429.341461,318.870636 385.464203,355.767242 
	C372.160858,366.954132 360.990112,380.253510 350.950226,394.914551 
z"/>
<path fill="#000000" opacity="1.000000" stroke="none" 
	d="
M642.000000,595.824890 
	C656.770386,595.822815 671.040833,595.822815 686.032959,595.822815 
	C682.649048,606.989807 675.110779,614.385864 668.630005,622.340881 
	C670.419434,624.396301 672.378235,623.681824 674.094421,623.691833 
	C685.252319,623.756958 696.414307,623.897095 707.567932,623.668518 
	C718.613525,623.442139 729.410889,625.535461 740.259827,626.914246 
	C752.352600,628.451172 764.444824,628.880310 776.588623,628.990723 
	C778.798767,629.010803 781.163940,628.648804 783.049194,630.927429 
	C713.811279,632.437805 644.609863,633.311096 575.778381,633.281921 
	C574.831360,631.451965 575.386047,630.551636 575.965149,629.764954 
	C582.028748,621.528076 584.070557,611.948364 584.654358,602.078735 
	C584.945007,597.166382 586.498901,595.579224 591.541870,595.679932 
	C608.188904,596.012451 624.846497,595.818665 642.000000,595.824890 
z"/>
<path fill="#000000" opacity="1.000000" stroke="none" 
	d="
M500.999664,705.712341 
	C525.793518,706.280396 550.171997,704.340149 574.373047,708.078735 
	C540.935242,714.502197 507.512909,714.532776 474.089325,709.385071 
	C474.042999,708.494263 473.996643,707.603455 473.950287,706.712646 
	C482.683136,705.133240 491.646912,706.015625 500.999664,705.712341 
z"/>
</svg>